<svg xmlns="http://www.w3.org/2000/svg" width="238.059" height="423.293" viewBox="0 0 238.059 423.293"><defs><style>.a{fill:#3f3d56;}.b{fill:#ccc;}.c{fill:#fff;}.d{fill:#6c63ff;}.e{fill:#e6e6e6;}.f{fill:#ffb8b8;}.g{fill:#2f2e41;}</style></defs><path class="a" d="M585.431,458.114H459.106a35.054,35.054,0,0,1-35.054-35.054V95.952A35.093,35.093,0,0,1,459.106,60.9H585.43a35.094,35.094,0,0,1,35.054,35.054v59.081h2.176v43.531h-2.177v224.5a35.054,35.054,0,0,1-35.053,35.054ZM459.106,61.987a34,34,0,0,0-33.965,33.965V423.061a33.965,33.965,0,0,0,33.965,33.965H585.43A33.965,33.965,0,0,0,619.4,423.061V197.475h2.177V156.122H619.4V95.952A34,34,0,0,0,585.43,61.987Z" transform="translate(-400.538 -60.898)"/><path class="b" d="M594.795,456.654H467.865a26.347,26.347,0,0,1-26.317-26.317V103.71a26.347,26.347,0,0,1,26.317-26.317h16.207l-.3.749A11.706,11.706,0,0,0,494.6,94.261H566.97A11.706,11.706,0,0,0,577.8,78.142l-.3-.749h17.3a26.347,26.347,0,0,1,26.317,26.317V430.337a26.347,26.347,0,0,1-26.317,26.317ZM467.865,78.481a25.257,25.257,0,0,0-25.228,25.228V430.337a25.257,25.257,0,0,0,25.228,25.228h126.93a25.257,25.257,0,0,0,25.228-25.228V103.71h0a25.258,25.258,0,0,0-25.228-25.228h-15.7a12.8,12.8,0,0,1-12.12,16.868H494.6a12.8,12.8,0,0,1-12.12-16.868Z" transform="translate(-408.511 -68.415)"/><path class="c" d="M607.413,374.659H392.348a11.51,11.51,0,0,1-11.5-11.5V294.178a11.51,11.51,0,0,1,11.5-11.5H607.413a11.51,11.51,0,0,1,11.5,11.5v68.983A11.51,11.51,0,0,1,607.413,374.659Z" transform="translate(-380.851 -161.965)"/><path class="a" d="M607.413,374.659H392.348a11.51,11.51,0,0,1-11.5-11.5V294.178a11.51,11.51,0,0,1,11.5-11.5H607.413a11.51,11.51,0,0,1,11.5,11.5v68.983A11.51,11.51,0,0,1,607.413,374.659ZM392.348,284.034A10.156,10.156,0,0,0,382.2,294.178v68.983a10.156,10.156,0,0,0,10.145,10.145H607.413a10.156,10.156,0,0,0,10.145-10.145V294.178a10.156,10.156,0,0,0-10.144-10.145Z" transform="translate(-380.851 -161.965)"/><path class="d" d="M583.97,351.279H508.9a5.41,5.41,0,0,1,0-10.821h75.07a5.41,5.41,0,0,1,0,10.821Z" transform="translate(-436.738 -188.295)"/><path class="d" d="M653.629,384.827H508.9a5.41,5.41,0,0,1,0-10.821H653.629a5.41,5.41,0,0,1,0,10.821Z" transform="translate(-436.738 -203.583)"/><circle class="d" cx="20.289" cy="20.289" r="20.289" transform="translate(15.757 146.415)"/><path class="c" d="M758.932,425.209H740a5.41,5.41,0,0,1,0-10.821h18.936a5.41,5.41,0,1,1,0,10.821Z" transform="translate(-542.049 -221.985)"/><path class="b" d="M758.932,425.209H740a5.41,5.41,0,0,1,0-10.821h18.936a5.41,5.41,0,1,1,0,10.821Z" transform="translate(-542.049 -221.985)"/><path class="b" d="M613.919,207.338H494.249a6.4,6.4,0,0,1-6.4-6.4V162.556a6.4,6.4,0,0,1,6.4-6.4h119.67a6.4,6.4,0,0,1,6.4,6.4v38.385A6.4,6.4,0,0,1,613.919,207.338Zm-119.67-50.427a5.651,5.651,0,0,0-5.645,5.645v38.385a5.651,5.651,0,0,0,5.645,5.645h119.67a5.651,5.651,0,0,0,5.645-5.645V162.556a5.651,5.651,0,0,0-5.645-5.645Z" transform="translate(-429.611 -104.308)"/><path class="e" d="M600.875,194.329H559.1a3.011,3.011,0,0,1,0-6.021h41.772a3.011,3.011,0,1,1,0,6.021Z" transform="translate(-460.709 -118.959)"/><path class="e" d="M639.635,213H559.1a3.011,3.011,0,0,1,0-6.021h80.533a3.011,3.011,0,1,1,0,6.021Z" transform="translate(-460.709 -127.466)"/><circle class="e" cx="11.29" cy="11.29" r="11.29" transform="translate(67.008 66.15)"/><path class="c" d="M698.23,235.467H687.693a3.011,3.011,0,0,1,0-6.021H698.23a3.011,3.011,0,1,1,0,6.021Z" transform="translate(-519.308 -137.706)"/><path class="b" d="M698.23,235.467H687.693a3.011,3.011,0,0,1,0-6.021H698.23a3.011,3.011,0,1,1,0,6.021Z" transform="translate(-519.308 -137.706)"/><path class="b" d="M613.919,533.338H494.249a6.4,6.4,0,0,1-6.4-6.4V488.556a6.4,6.4,0,0,1,6.4-6.4h119.67a6.4,6.4,0,0,1,6.4,6.4v38.385a6.4,6.4,0,0,1-6.4,6.4Zm-119.67-50.427a5.651,5.651,0,0,0-5.645,5.645v38.385a5.651,5.651,0,0,0,5.645,5.645h119.67a5.651,5.651,0,0,0,5.645-5.645V488.556a5.651,5.651,0,0,0-5.645-5.645Z" transform="translate(-429.611 -252.868)"/><path class="e" d="M600.875,520.329H559.1a3.011,3.011,0,0,1,0-6.021h41.772a3.011,3.011,0,1,1,0,6.021Z" transform="translate(-460.709 -267.518)"/><path class="e" d="M639.635,539H559.1a3.011,3.011,0,1,1,0-6.021h80.533a3.011,3.011,0,0,1,0,6.021Z" transform="translate(-460.709 -276.025)"/><circle class="e" cx="11.29" cy="11.29" r="11.29" transform="translate(67.008 243.591)"/><path class="c" d="M698.23,561.467H687.693a3.011,3.011,0,0,1,0-6.021H698.23a3.011,3.011,0,1,1,0,6.021Z" transform="translate(-519.308 -286.265)"/><path class="b" d="M698.23,561.467H687.693a3.011,3.011,0,0,1,0-6.021H698.23a3.011,3.011,0,1,1,0,6.021Z" transform="translate(-519.308 -286.265)"/><path class="b" d="M613.919,664.338H494.249a6.4,6.4,0,0,1-6.4-6.4V619.556a6.4,6.4,0,0,1,6.4-6.4h119.67a6.4,6.4,0,0,1,6.4,6.4v38.385A6.4,6.4,0,0,1,613.919,664.338Zm-119.67-50.427a5.651,5.651,0,0,0-5.645,5.645v38.385a5.651,5.651,0,0,0,5.645,5.645h119.67a5.651,5.651,0,0,0,5.645-5.645V619.556a5.651,5.651,0,0,0-5.645-5.645Z" transform="translate(-429.611 -312.565)"/><path class="e" d="M600.875,651.329H559.1a3.011,3.011,0,0,1,0-6.021h41.772a3.011,3.011,0,1,1,0,6.021Z" transform="translate(-460.709 -327.215)"/><path class="e" d="M639.635,670H559.1a3.011,3.011,0,1,1,0-6.021h80.533a3.011,3.011,0,0,1,0,6.021Z" transform="translate(-460.709 -335.722)"/><circle class="e" cx="11.29" cy="11.29" r="11.29" transform="translate(67.008 314.894)"/><path class="c" d="M698.23,692.467H687.693a3.011,3.011,0,0,1,0-6.021H698.23a3.011,3.011,0,1,1,0,6.021Z" transform="translate(-519.308 -345.962)"/><path class="b" d="M698.23,692.467H687.693a3.011,3.011,0,0,1,0-6.021H698.23a3.011,3.011,0,1,1,0,6.021Z" transform="translate(-519.308 -345.962)"/><path class="f" d="M201.656,744.254h6.673l3.174-25.739h-9.849Z" transform="translate(-91.895 -327.429)"/><path class="g" d="M579.381,822.7h13.142a8.375,8.375,0,0,1,8.375,8.375v.272H579.381Z" transform="translate(-471.322 -408.053)"/><path class="f" d="M152.656,744.254h6.673l3.174-25.739h-9.848Z" transform="translate(-69.565 -327.429)"/><path class="g" d="M530.381,822.7h13.142a8.375,8.375,0,0,1,8.375,8.375v.272H530.381Z" transform="translate(-448.992 -408.053)"/><circle class="f" cx="13.368" cy="13.368" r="13.368" transform="translate(97.725 211.895)"/><path class="g" d="M567.706,722.25H555.323a2.45,2.45,0,0,1-2.449-2.479l.72-58.8a.816.816,0,0,0-1.627-.109L544.76,720.1a2.452,2.452,0,0,1-2.431,2.153h-12.5a2.449,2.449,0,0,1-2.442-2.64l8.256-105.634.224-.024,39.532-4.269-5.243,110.235a2.447,2.447,0,0,1-2.447,2.333Z" transform="translate(-447.623 -310.98)"/><path class="d" d="M541.3,574.269a2.447,2.447,0,0,1-2.44-2.372c-.216-6.679-.586-29.791,3.713-46.758a22.274,22.274,0,0,1,20.57-16.786h0a22.414,22.414,0,0,1,22.076,14.164c7.226,18.345,14.053,40.956,5.541,44.5-11.155,4.648-40.563,6.72-49.31,7.244Q541.377,574.269,541.3,574.269Z" transform="translate(-452.804 -264.789)"/><path class="f" d="M631.82,441.839a5.734,5.734,0,0,0,.678.595l-1.4,26.957-5.837,2.988,3.359,9.4,10.848-4.286a4.354,4.354,0,0,0,2.735-4.453l-2.842-30.578a5.714,5.714,0,1,0-7.538-.622Z" transform="translate(-492.228 -230.087)"/><path class="d" d="M620.37,501.029l4.106,11.669a2.449,2.449,0,0,1-1.845,3.218l-12.108,2.345a6.8,6.8,0,1,1-4.478-12.846l10.872-5.739a2.449,2.449,0,0,1,3.453,1.353Z" transform="translate(-481.392 -260.721)"/><path class="f" d="M522.221,441.839a5.759,5.759,0,0,1-.678.595l1.4,26.957,5.837,2.989-3.359,9.4-10.848-4.287a4.354,4.354,0,0,1-2.736-4.453l2.842-30.578a5.714,5.714,0,1,1,7.538-.622Z" transform="translate(-440.535 -230.087)"/><path class="d" d="M529.919,499.561a2.447,2.447,0,0,1,2.036.114l10.872,5.738a6.8,6.8,0,1,1-4.478,12.846l-12.108-2.345A2.449,2.449,0,0,1,524.4,512.7l4.106-11.669A2.446,2.446,0,0,1,529.919,499.561Z" transform="translate(-446.201 -260.721)"/><path class="g" d="M575.172,456.991a8.787,8.787,0,0,1,4.921-8.256c4.064-2.1,6.616-6.573,5.5-10.659-1.432-5.23-8.55-8.622-14.318-6.823a26.429,26.429,0,0,0-4.5,2.09l-3.768,2.02a39.051,39.051,0,0,0-4.645,2.742,15.412,15.412,0,0,0-6.134,14.44c.742,5.317,4.224,10.193,8.991,13.532a15.2,15.2,0,0,0,6.161,2.738,8.186,8.186,0,0,0,6.5-1.472c2.611-2.22,2.341-5.939,1.5-9.044A6.578,6.578,0,0,1,575.172,456.991Z" transform="translate(-458.887 -229.448)"/></svg>